<svg width="105" height="71.801" viewBox="0 0 105 71.801" xmlns="http://www.w3.org/2000/svg"><g id="svgGroup" stroke-linecap="round" fill-rule="evenodd" font-size="9pt" stroke="#000" stroke-width="0.25mm" fill="#000" style="stroke:#000;stroke-width:0.25mm;fill:#000"><path d="M 0 54.5 L 2 54.5 Q 2.5 58 4.55 61.5 Q 6.513 64.852 10.676 67.286 A 24.948 24.948 0 0 0 11.05 67.5 A 17.93 17.93 0 0 0 15.606 69.253 Q 17.714 69.767 20.182 69.927 A 35.706 35.706 0 0 0 22.5 70 Q 28.1 70 32.4 67.85 A 17.897 17.897 0 0 0 36.354 65.202 A 14.933 14.933 0 0 0 39 62.1 Q 41.3 58.5 41.3 54.1 Q 41.3 49.745 39.782 46.761 A 10.688 10.688 0 0 0 38.7 45.05 Q 36.1 41.7 32.25 40.1 Q 28.485 38.536 22.187 36.876 A 155.399 155.399 0 0 0 21.9 36.8 A 119.679 119.679 0 0 1 17.914 35.675 Q 13.819 34.438 11 33.2 A 17.453 17.453 0 0 1 4.053 27.654 A 18.872 18.872 0 0 1 4.05 27.65 Q 1.601 24.428 1.256 19.248 A 26.349 26.349 0 0 1 1.2 17.5 Q 1.2 12.9 3.75 8.85 Q 6.3 4.8 11.05 2.4 Q 15.8 0 21.9 0 Q 27.991 0 32.441 2.124 A 18.475 18.475 0 0 1 32.6 2.2 Q 37.1 4.4 39.65 7.75 A 19.107 19.107 0 0 1 42.061 11.852 A 16.391 16.391 0 0 1 43 14.8 L 41 14.8 Q 40.3 11.9 38.1 8.9 A 14.904 14.904 0 0 0 35.024 5.826 A 20.742 20.742 0 0 0 31.8 3.85 A 18.596 18.596 0 0 0 26.984 2.255 Q 24.63 1.8 21.9 1.8 A 23.234 23.234 0 0 0 15.572 2.64 A 20.689 20.689 0 0 0 12.55 3.75 A 17.42 17.42 0 0 0 7.558 7.14 A 16.165 16.165 0 0 0 5.75 9.25 A 13.611 13.611 0 0 0 3.216 16.772 A 16.846 16.846 0 0 0 3.2 17.5 A 20.59 20.59 0 0 0 3.528 21.288 Q 3.924 23.405 4.8 25.096 A 11.074 11.074 0 0 0 5.85 26.75 Q 8.5 30.2 12.4 31.85 A 49.099 49.099 0 0 0 15.388 32.991 Q 16.961 33.538 18.814 34.09 A 122.272 122.272 0 0 0 22.8 35.2 A 125.613 125.613 0 0 1 26.781 36.32 Q 30.801 37.528 33.561 38.712 A 37.591 37.591 0 0 1 33.65 38.75 Q 37.7 40.5 40.5 44.15 A 12.578 12.578 0 0 1 42.578 48.385 Q 43.074 50.115 43.229 52.168 A 25.658 25.658 0 0 1 43.3 54.1 A 16.659 16.659 0 0 1 41.37 61.829 A 19.883 19.883 0 0 1 40.95 62.6 Q 38.6 66.7 33.9 69.25 Q 29.333 71.728 22.878 71.798 A 34.765 34.765 0 0 1 22.5 71.8 A 31.542 31.542 0 0 1 16.787 71.308 A 23.149 23.149 0 0 1 10.85 69.4 Q 5.9 67 3.2 63.05 Q 0.5 59.1 0 54.5 Z M 53.5 57.3 L 55.5 57.3 Q 56.1 63.3 60.85 66.65 A 16.226 16.226 0 0 0 65.511 68.866 Q 69.236 70 74.3 70 A 19.328 19.328 0 0 0 78.377 69.589 A 15.112 15.112 0 0 0 82.05 68.3 Q 85.4 66.6 87.2 63.75 Q 89 60.9 89 57.6 A 10.314 10.314 0 0 0 88.687 54.994 A 7.57 7.57 0 0 0 86.95 51.75 A 13.24 13.24 0 0 0 82.505 48.575 A 15.575 15.575 0 0 0 81.85 48.3 Q 78.939 47.155 73.979 45.828 A 153.262 153.262 0 0 0 73.5 45.7 A 110.428 110.428 0 0 1 69.71 44.669 Q 66.345 43.685 63.95 42.7 Q 60.3 41.2 57.75 38.1 Q 55.332 35.161 55.207 30.423 A 19.79 19.79 0 0 1 55.2 29.9 A 11.319 11.319 0 0 1 57.315 23.322 A 13.779 13.779 0 0 1 57.4 23.2 Q 59.6 20.1 63.45 18.25 A 18.827 18.827 0 0 1 69.742 16.518 A 23.189 23.189 0 0 1 72.1 16.4 A 26.673 26.673 0 0 1 77.69 16.953 Q 82.136 17.906 85.3 20.5 A 14.454 14.454 0 0 1 90.427 29.486 A 20.287 20.287 0 0 1 90.7 31.9 L 88.7 31.9 Q 88.4 25.9 84.15 22.05 A 13.896 13.896 0 0 0 78.728 19.075 Q 76.636 18.446 74.127 18.27 A 28.853 28.853 0 0 0 72.1 18.2 A 19.014 19.014 0 0 0 67.453 18.75 A 16.171 16.171 0 0 0 64.5 19.8 A 14.935 14.935 0 0 0 61.297 21.811 A 12.432 12.432 0 0 0 59.15 24.1 A 10.32 10.32 0 0 0 57.56 27.31 A 9.369 9.369 0 0 0 57.2 29.9 A 13.692 13.692 0 0 0 57.523 32.958 A 9.335 9.335 0 0 0 59.5 37 Q 61.8 39.7 65.15 41 A 53.891 53.891 0 0 0 67.463 41.832 Q 70.16 42.739 73.853 43.734 A 170.488 170.488 0 0 0 74.1 43.8 A 153.645 153.645 0 0 1 77.423 44.771 Q 80.339 45.661 82.399 46.446 A 42.772 42.772 0 0 1 83.05 46.7 Q 86.3 48 88.6 50.65 A 9.144 9.144 0 0 1 90.616 54.781 A 13.264 13.264 0 0 1 90.9 57.6 Q 90.9 61.6 88.7 64.85 A 14.805 14.805 0 0 1 83.406 69.587 A 17.749 17.749 0 0 1 82.7 69.95 A 18.46 18.46 0 0 1 76.215 71.712 A 22.485 22.485 0 0 1 74.2 71.8 Q 67.49 71.8 62.741 69.754 A 18.549 18.549 0 0 1 59.85 68.2 A 13.897 13.897 0 0 1 53.892 59.491 A 19.785 19.785 0 0 1 53.5 57.3 Z M 101.359 71.101 A 2.659 2.659 0 0 0 102.4 71.3 A 3.201 3.201 0 0 0 102.434 71.3 A 2.508 2.508 0 0 0 104.25 70.55 A 2.46 2.46 0 0 0 104.876 69.501 A 3.127 3.127 0 0 0 105 68.6 A 3.471 3.471 0 0 0 104.974 68.166 A 2.525 2.525 0 0 0 104.25 66.65 A 2.52 2.52 0 0 0 103.441 66.1 A 2.659 2.659 0 0 0 102.4 65.9 A 3.201 3.201 0 0 0 102.366 65.901 A 2.508 2.508 0 0 0 100.55 66.65 Q 99.806 67.394 99.8 68.582 A 3.805 3.805 0 0 0 99.8 68.6 A 3.471 3.471 0 0 0 99.826 69.035 A 2.525 2.525 0 0 0 100.55 70.55 A 2.52 2.52 0 0 0 101.359 71.101 Z" vector-effect="non-scaling-stroke"/></g></svg>